<svg id="visual" viewBox="0 0 900 600" width="900" height="600" xmlns="http://www.w3.org/2000/svg" xmlns:xlink="http://www.w3.org/1999/xlink" version="1.1"><rect x="0" y="0" width="900" height="600" fill="#001220"></rect><path d="M0 455L16.7 464.3C33.3 473.7 66.7 492.3 100 498.2C133.3 504 166.7 497 200 494.2C233.3 491.3 266.7 492.7 300 487.8C333.3 483 366.7 472 400 474.8C433.3 477.7 466.7 494.3 500 501.8C533.3 509.3 566.7 507.7 600 498.5C633.3 489.3 666.7 472.7 700 465.3C733.3 458 766.7 460 800 469.2C833.3 478.3 866.7 494.7 883.3 502.8L900 511L900 601L883.3 601C866.7 601 833.3 601 800 601C766.7 601 733.3 601 700 601C666.7 601 633.3 601 600 601C566.7 601 533.3 601 500 601C466.7 601 433.3 601 400 601C366.7 601 333.3 601 300 601C266.7 601 233.3 601 200 601C166.7 601 133.3 601 100 601C66.7 601 33.3 601 16.7 601L0 601Z" fill="#ffffff"></path><path d="M0 486L16.7 481.3C33.3 476.7 66.7 467.3 100 470.5C133.3 473.7 166.7 489.3 200 496.8C233.3 504.3 266.7 503.7 300 501C333.3 498.3 366.7 493.7 400 487.7C433.3 481.7 466.7 474.3 500 470.3C533.3 466.3 566.7 465.7 600 472.5C633.3 479.3 666.7 493.7 700 499C733.3 504.3 766.7 500.7 800 503C833.3 505.3 866.7 513.7 883.3 517.8L900 522L900 601L883.3 601C866.7 601 833.3 601 800 601C766.7 601 733.3 601 700 601C666.7 601 633.3 601 600 601C566.7 601 533.3 601 500 601C466.7 601 433.3 601 400 601C366.7 601 333.3 601 300 601C266.7 601 233.3 601 200 601C166.7 601 133.3 601 100 601C66.7 601 33.3 601 16.7 601L0 601Z" fill="#e1e6f8"></path><path d="M0 483L16.7 489.3C33.3 495.7 66.7 508.3 100 512.5C133.3 516.7 166.7 512.3 200 513.7C233.3 515 266.7 522 300 520C333.3 518 366.7 507 400 499.3C433.3 491.7 466.7 487.3 500 494.5C533.3 501.7 566.7 520.3 600 527.7C633.3 535 666.7 531 700 530.3C733.3 529.7 766.7 532.3 800 526.3C833.3 520.3 866.7 505.7 883.3 498.3L900 491L900 601L883.3 601C866.7 601 833.3 601 800 601C766.7 601 733.3 601 700 601C666.7 601 633.3 601 600 601C566.7 601 533.3 601 500 601C466.7 601 433.3 601 400 601C366.7 601 333.3 601 300 601C266.7 601 233.3 601 200 601C166.7 601 133.3 601 100 601C66.7 601 33.3 601 16.7 601L0 601Z" fill="#c3cef1"></path><path d="M0 499L16.7 503.7C33.3 508.3 66.7 517.7 100 518.8C133.3 520 166.7 513 200 509.7C233.3 506.3 266.7 506.7 300 510C333.3 513.3 366.7 519.7 400 527C433.3 534.3 466.7 542.7 500 546.7C533.3 550.7 566.7 550.3 600 549C633.3 547.7 666.7 545.3 700 540.2C733.3 535 766.7 527 800 519.8C833.3 512.7 866.7 506.3 883.3 503.2L900 500L900 601L883.3 601C866.7 601 833.3 601 800 601C766.7 601 733.3 601 700 601C666.7 601 633.3 601 600 601C566.7 601 533.3 601 500 601C466.7 601 433.3 601 400 601C366.7 601 333.3 601 300 601C266.7 601 233.3 601 200 601C166.7 601 133.3 601 100 601C66.7 601 33.3 601 16.7 601L0 601Z" fill="#a3b7e9"></path><path d="M0 562L16.7 555.5C33.3 549 66.7 536 100 535.2C133.3 534.3 166.7 545.7 200 552C233.3 558.3 266.7 559.7 300 560C333.3 560.3 366.7 559.7 400 557.2C433.3 554.7 466.7 550.3 500 544.7C533.3 539 566.7 532 600 531.8C633.3 531.7 666.7 538.3 700 540C733.3 541.7 766.7 538.3 800 540.7C833.3 543 866.7 551 883.3 555L900 559L900 601L883.3 601C866.7 601 833.3 601 800 601C766.7 601 733.3 601 700 601C666.7 601 633.3 601 600 601C566.7 601 533.3 601 500 601C466.7 601 433.3 601 400 601C366.7 601 333.3 601 300 601C266.7 601 233.3 601 200 601C166.7 601 133.3 601 100 601C66.7 601 33.3 601 16.7 601L0 601Z" fill="#81a1e2"></path><path d="M0 578L16.7 572.5C33.3 567 66.7 556 100 550.8C133.3 545.7 166.7 546.3 200 547.8C233.3 549.3 266.7 551.7 300 550.5C333.3 549.3 366.7 544.7 400 548C433.3 551.3 466.7 562.7 500 566.7C533.3 570.7 566.7 567.3 600 562.8C633.3 558.3 666.7 552.7 700 551.7C733.3 550.7 766.7 554.3 800 555.5C833.3 556.7 866.7 555.3 883.3 554.7L900 554L900 601L883.3 601C866.7 601 833.3 601 800 601C766.7 601 733.3 601 700 601C666.7 601 633.3 601 600 601C566.7 601 533.3 601 500 601C466.7 601 433.3 601 400 601C366.7 601 333.3 601 300 601C266.7 601 233.3 601 200 601C166.7 601 133.3 601 100 601C66.7 601 33.3 601 16.7 601L0 601Z" fill="#5a8bda"></path><path d="M0 561L16.7 563.5C33.3 566 66.7 571 100 575.2C133.3 579.3 166.7 582.7 200 584.5C233.3 586.3 266.7 586.7 300 583.5C333.3 580.3 366.7 573.7 400 570C433.3 566.3 466.7 565.7 500 565C533.3 564.3 566.7 563.7 600 567.5C633.3 571.3 666.7 579.7 700 580.8C733.3 582 766.7 576 800 574C833.3 572 866.7 574 883.3 575L900 576L900 601L883.3 601C866.7 601 833.3 601 800 601C766.7 601 733.3 601 700 601C666.7 601 633.3 601 600 601C566.7 601 533.3 601 500 601C466.7 601 433.3 601 400 601C366.7 601 333.3 601 300 601C266.7 601 233.3 601 200 601C166.7 601 133.3 601 100 601C66.7 601 33.3 601 16.7 601L0 601Z" fill="#1976d2"></path></svg>